<svg viewBox="0 0 65 60" xmlns="http://www.w3.org/2000/svg" fill-rule="evenodd" clip-rule="evenodd" stroke-linejoin="round" stroke-miterlimit="1.414"><path d="M24.661 21.41a6.425 6.425 0 0 0-.526-2.001C22.498 14.332 18.256 8.531 9.66 3.414 4.113.114.735 2.048 2.254 7.358c.958 3.346 2.59 5.081 3.278 8.643.693 3.584-2.961 9.069 1.623 12.748-1.522 3.044-2.855 6.223-3.917 8.953-1.312 3.382-.202 7.343 6.256 7.352 14.605.023 17.4-13.657 15.167-23.644z" fill="url(#l)"/><path d="M58.23 23.758c-9.718-2.357-16.805-1.183-21.531 1.303a6.2 6.2 0 0 0-1.781 1.057c-8.575 5.572-16.156 17.299-5.704 27.502 4.621 4.516 8.185 2.46 9.612-.872 1.156-2.694 2.428-5.9 3.469-9.138 5.849.58 7.078-5.894 10.077-7.973 2.982-2.063 5.369-2.158 8.387-3.879 4.81-2.735 3.75-6.481-2.529-8z" fill="url(#m)"/><defs><linearGradient id="l" x2="1" gradientUnits="userSpaceOnUse" gradientTransform="rotate(106.856 6.446 9.32) scale(40.6765)"><stop offset="0" stop-color="#cd2b27"/><stop offset="1" stop-color="#f68b1e"/></linearGradient><linearGradient id="m" x2="1" gradientUnits="userSpaceOnUse" gradientTransform="rotate(106.856 19.017 26.265) scale(40.6748)"><stop offset="0" stop-color="#cd2b27"/><stop offset="1" stop-color="#f68b1e"/></linearGradient></defs></svg>
